<?xml version="1.0" standalone="no"?>
<!DOCTYPE svg PUBLIC "-//W3C//DTD SVG 20010904//EN"
 "http://www.w3.org/TR/2001/REC-SVG-20010904/DTD/svg10.dtd">
<svg version="1.0" xmlns="http://www.w3.org/2000/svg"
 width="499.000000pt" height="148.000000pt" viewBox="0 0 499.000000 148.000000"
 preserveAspectRatio="xMidYMid meet">

<g transform="translate(0.000000,148.000000) scale(0.100000,-0.100000)"
fill="#000000" stroke="none">
<path d="M0 740 l0 -740 2495 0 2495 0 0 740 0 740 -2495 0 -2495 0 0 -740z
m1653 549 l327 -102 0 -161 0 -161 -243 -70 -242 -70 -5 -250 -5 -250 -84 -31
-84 -32 -96 33 c-53 18 -197 68 -321 110 -124 42 -228 80 -233 84 -4 4 -8 189
-8 411 -1 329 2 405 13 409 36 13 625 179 638 180 8 1 162 -44 343 -100z m9
-660 c10 -12 15 -25 12 -30 -8 -14 -34 -10 -40 6 -6 15 -54 22 -54 7 0 -4 23
-18 50 -29 40 -17 50 -26 50 -45 0 -35 -18 -48 -69 -48 -45 0 -81 20 -81 47 0
18 28 17 46 -2 17 -17 50 -20 59 -5 3 5 -16 20 -42 32 -38 18 -48 28 -48 48 0
50 80 62 117 19z m187 -6 c18 -21 22 -34 17 -62 -7 -46 -38 -71 -86 -71 -66 0
-103 73 -64 128 34 48 92 50 133 5z m1909 11 c12 -8 22 -21 22 -29 0 -20 -36
-19 -44 0 -7 18 -47 20 -64 3 -17 -17 -15 -63 3 -78 14 -12 55 -5 55 10 0 4
-9 10 -20 13 -41 11 -20 27 35 27 l55 0 0 -45 c0 -38 -3 -45 -20 -45 -14 0
-20 7 -20 22 l0 22 -16 -22 c-15 -22 -66 -30 -90 -14 -34 22 -43 84 -18 120
29 42 71 48 122 16z m183 16 c22 0 49 -42 49 -77 0 -67 -69 -106 -130 -73 -27
15 -41 64 -28 101 11 32 60 63 86 54 8 -3 18 -5 23 -5z m186 0 c35 -13 64 -60
36 -60 -9 0 -24 7 -34 16 -23 21 -65 11 -72 -16 -14 -53 25 -84 69 -55 14 9
32 15 41 13 12 -2 11 -8 -7 -30 -25 -32 -81 -38 -117 -13 -46 32 -36 115 17
142 31 15 30 15 67 3z m351 -22 c50 -47 13 -138 -57 -138 -69 0 -108 57 -79
117 26 55 89 64 136 21z m139 21 c29 -11 43 -26 43 -46 0 -18 -25 -16 -40 2
-13 16 -50 21 -50 6 0 -5 15 -14 33 -21 39 -16 67 -39 67 -56 0 -25 -31 -44
-71 -44 -50 0 -79 15 -79 40 0 24 35 27 44 4 4 -10 15 -14 31 -12 40 5 34 20
-13 36 -65 21 -81 71 -30 92 30 12 32 12 65 -1z m-2607 -14 c0 -11 -11 -15
-40 -15 -33 0 -40 -3 -40 -20 0 -16 7 -20 35 -20 28 0 35 -4 35 -20 0 -16 -7
-20 -35 -20 -31 0 -35 -3 -35 -25 0 -18 -5 -25 -20 -25 -18 0 -20 7 -20 80 l0
80 60 0 c47 0 60 -3 60 -15z m160 0 c0 -9 -9 -15 -25 -15 -24 0 -25 -2 -25
-65 0 -58 -2 -65 -20 -65 -18 0 -20 7 -20 65 l0 65 -30 0 c-20 0 -30 5 -30 15
0 12 15 15 75 15 60 0 75 -3 75 -15z m55 -33 c10 -76 21 -80 34 -12 l12 61 37
-3 c36 -3 37 -5 47 -55 13 -69 21 -73 30 -17 9 63 14 74 34 74 17 0 17 -5 2
-80 l-15 -80 -37 0 c-36 0 -37 1 -44 46 -13 89 -21 94 -35 21 -12 -67 -12 -67
-46 -67 -29 0 -35 4 -40 28 -3 15 -10 43 -15 62 -14 53 -11 70 10 70 15 0 20
-10 26 -48z m367 -32 c26 -78 26 -80 6 -80 -11 0 -22 8 -25 20 -4 15 -14 20
-40 20 -26 0 -36 -5 -40 -20 -5 -19 -43 -29 -43 -12 0 7 26 89 45 140 2 6 19
12 38 12 32 0 33 -1 59 -80z m166 68 c19 -19 14 -45 -10 -62 l-22 -16 22 0
c19 0 22 -5 22 -35 0 -28 -4 -35 -20 -35 -15 0 -20 7 -20 29 0 24 -4 28 -27
27 -23 -1 -29 -6 -31 -28 -2 -20 -9 -28 -23 -28 -17 0 -19 8 -19 80 l0 80 58
0 c32 0 63 -5 70 -12z m162 -3 c0 -11 -11 -15 -40 -15 -51 0 -57 -27 -7 -32
20 -2 32 -8 32 -18 0 -10 -12 -16 -32 -18 -50 -5 -44 -32 7 -32 29 0 40 -4 40
-15 0 -12 -13 -15 -60 -15 l-60 0 0 80 0 80 60 0 c47 0 60 -3 60 -15z m250 0
c0 -11 -11 -15 -36 -15 l-35 0 22 -32 c22 -31 23 -31 32 -10 6 12 18 22 29 22
21 0 22 -6 7 -49 -9 -24 -8 -35 2 -47 18 -22 -4 -42 -27 -23 -11 9 -35 13 -70
11 -42 -3 -56 0 -73 17 -12 12 -21 30 -21 40 0 25 37 52 59 43 14 -5 14 -3 -2
21 -9 14 -17 29 -17 32 0 3 29 5 65 5 51 0 65 -3 65 -15z m226 -53 l22 -67 1
68 c1 60 3 67 21 67 18 0 20 -7 20 -80 l0 -80 -39 0 -38 0 -21 68 -21 67 0
-67 c-1 -61 -3 -68 -21 -68 -18 0 -20 7 -20 80 l0 80 38 0 c37 0 37 0 58 -68z
m204 53 c0 -10 -11 -15 -35 -15 -24 0 -35 -5 -35 -15 0 -10 10 -15 30 -15 23
0 30 -4 30 -20 0 -16 -7 -20 -30 -20 -20 0 -30 -5 -30 -15 0 -10 11 -15 35
-15 24 0 35 -5 35 -15 0 -12 -13 -15 -60 -15 l-60 0 0 80 0 80 60 0 c47 0 60
-3 60 -15z m710 0 c0 -8 -7 -15 -15 -15 -11 0 -15 -12 -15 -50 0 -38 4 -50 15
-50 8 0 15 -7 15 -15 0 -12 -13 -15 -55 -15 -40 0 -55 4 -55 14 0 7 9 16 20
19 16 4 20 14 20 51 0 39 -3 46 -20 46 -11 0 -20 7 -20 15 0 12 13 15 55 15
42 0 55 -3 55 -15z m-2390 -396 c0 -33 -4 -59 -10 -59 -6 0 -10 29 -10 66 0
41 4 63 10 59 6 -3 10 -33 10 -66z m1293 -8 c2 -35 -2 -51 -10 -51 -8 0 -13
15 -13 40 0 22 -5 40 -10 40 -6 0 -5 8 2 20 18 28 30 10 31 -49z m-1193 -11
c0 -51 -18 -52 -22 -2 -2 25 -8 37 -18 37 -10 0 -16 -12 -18 -37 -4 -53 -22
-48 -22 6 0 38 3 45 23 48 40 7 57 -9 57 -52z m195 20 c9 -28 -12 -60 -38 -60
-48 0 -65 57 -25 84 25 18 53 7 63 -24z m175 -20 c0 -39 -1 -40 -35 -40 -31 0
-35 3 -35 25 0 18 7 26 25 31 14 3 25 10 25 15 0 13 -24 11 -38 -3 -9 -9 -12
-9 -12 0 0 18 32 31 52 21 13 -7 18 -22 18 -49z m148 3 c2 -26 -1 -43 -7 -43
-6 0 -11 18 -11 40 0 29 -4 40 -15 40 -11 0 -15 -11 -15 -40 0 -51 -18 -53
-22 -2 -2 25 -8 37 -18 37 -10 0 -16 -12 -18 -37 -4 -53 -22 -48 -22 6 0 50
10 56 85 46 39 -5 40 -6 43 -47z m424 -3 l4 -41 -36 3 c-27 2 -35 7 -35 23 0
11 10 24 23 30 12 5 22 13 22 17 0 12 -25 9 -38 -4 -9 -9 -12 -9 -12 0 0 6 8
15 17 21 28 15 50 -4 55 -49z m488 20 c0 -16 -7 -20 -31 -20 -27 0 -30 -2 -19
-15 8 -10 21 -13 33 -9 13 4 17 2 13 -5 -12 -18 -54 -13 -66 8 -14 28 -13 38
10 61 16 16 25 18 40 10 11 -6 20 -20 20 -30z m246 5 c9 -37 -4 -65 -32 -65
-17 0 -24 -5 -24 -20 0 -11 -4 -20 -10 -20 -6 0 -10 28 -10 64 0 59 2 65 23
68 33 6 46 -1 53 -27z m154 -5 c0 -16 -7 -20 -31 -20 -27 0 -30 -2 -19 -15 8
-10 21 -13 33 -9 13 4 17 2 13 -5 -9 -15 -49 -14 -64 1 -33 33 10 99 50 77 10
-5 18 -19 18 -29z m180 -20 c0 -39 -1 -40 -35 -40 -31 0 -35 3 -35 25 0 18 7
26 25 31 14 3 25 10 25 15 0 13 -24 11 -38 -3 -9 -9 -12 -9 -12 0 0 18 32 31
52 21 13 -7 18 -22 18 -49z m-1920 5 c0 -25 -4 -45 -10 -45 -5 0 -10 18 -10
41 0 52 -24 48 -28 -4 -5 -52 -22 -46 -22 8 0 45 0 45 35 45 35 0 35 0 35 -45z
m146 13 l7 -33 10 33 c9 30 27 45 27 22 0 -19 -29 -80 -38 -80 -5 0 -14 17
-20 39 -14 46 -15 51 -3 51 5 0 13 -15 17 -32z m383 10 c13 -36 -2 -63 -34
-63 -34 0 -50 23 -41 58 5 22 12 27 37 27 22 0 32 -6 38 -22z m89 2 c5 -13 3
-13 -11 -2 -9 8 -21 11 -27 7 -7 -5 0 -14 20 -27 26 -15 30 -21 20 -33 -14
-17 -56 -20 -65 -4 -10 16 4 24 17 11 16 -16 28 -15 28 2 0 8 -11 17 -25 20
-24 6 -33 25 -18 40 12 12 56 2 61 -14z m143 -1 c16 -31 -3 -69 -36 -69 -19 0
-25 -5 -25 -21 0 -11 -4 -17 -10 -14 -5 3 -10 33 -10 66 l0 59 35 0 c25 0 37
-6 46 -21z m146 3 c-10 -10 -17 -31 -17 -45 0 -47 -17 -29 -18 18 -1 42 0 45
25 45 25 0 25 -1 10 -18z m101 -30 l3 -43 -38 3 c-51 4 -58 33 -12 52 20 8 27
16 20 20 -7 4 -18 2 -26 -4 -12 -10 -15 -9 -15 4 0 13 7 17 33 14 30 -3 32 -6
35 -46z m144 11 c2 -21 8 -38 13 -38 6 0 11 17 13 38 5 53 22 46 22 -9 0 -45
0 -45 -32 -42 -31 3 -33 6 -36 46 -2 23 1 42 7 42 5 0 11 -17 13 -37z m336
-10 c2 -24 -1 -43 -7 -43 -5 0 -11 17 -13 38 -2 25 -8 37 -18 37 -10 0 -16
-12 -18 -37 -4 -51 -22 -49 -22 2 0 29 -4 40 -15 40 -11 0 -15 -11 -15 -40 0
-22 -4 -40 -10 -40 -5 0 -10 20 -10 45 l0 46 63 -3 62 -3 3 -42z m160 36 c-12
-6 -18 -22 -18 -44 0 -19 -4 -35 -10 -35 -5 0 -10 20 -10 45 0 42 2 45 28 45
23 -1 24 -2 10 -11z m177 0 c10 -16 -4 -24 -17 -11 -15 15 -28 15 -28 2 0 -6
12 -15 26 -20 16 -7 24 -16 22 -28 -4 -22 -51 -28 -68 -8 -15 19 0 22 18 4 9
-9 15 -9 24 0 8 8 5 14 -15 21 -26 10 -35 30 -20 44 10 11 51 8 58 -4z"/>
<path d="M1752 608 c-26 -26 -3 -88 33 -88 18 0 45 28 45 46 0 45 -49 71 -78
42z"/>
<path d="M3881 606 c-17 -20 -10 -67 12 -80 24 -15 51 4 55 38 6 48 -39 75
-67 42z"/>
<path d="M4386 604 c-9 -8 -16 -24 -16 -34 0 -22 25 -50 45 -50 21 0 45 29 45
54 0 43 -44 61 -74 30z"/>
<path d="M2521 597 c-14 -37 -14 -37 9 -37 21 0 24 12 10 45 -7 19 -9 18 -19
-8z"/>
<path d="M2670 600 c0 -17 5 -21 28 -18 16 2 27 9 27 18 0 9 -11 16 -27 18
-23 3 -28 -1 -28 -18z"/>
<path d="M3045 560 c-10 -16 14 -40 40 -40 31 0 38 11 18 32 -18 20 -48 24
-58 8z"/>
<path d="M2157 253 c-12 -11 -8 -40 7 -52 10 -9 16 -8 25 3 23 27 -8 74 -32
49z"/>
<path d="M2336 211 c-3 -5 0 -11 8 -14 15 -6 26 1 26 15 0 11 -27 10 -34 -1z"/>
<path d="M2912 209 c2 -6 8 -10 13 -10 5 0 11 4 13 10 2 6 -4 11 -13 11 -9 0
-15 -5 -13 -11z"/>
<path d="M3405 250 c-3 -5 1 -10 9 -10 9 0 16 5 16 10 0 6 -4 10 -9 10 -6 0
-13 -4 -16 -10z"/>
<path d="M3644 246 c-9 -23 0 -51 16 -51 10 0 15 10 15 29 0 32 -21 47 -31 22z"/>
<path d="M3795 250 c-3 -5 3 -10 15 -10 12 0 18 5 15 10 -3 6 -10 10 -15 10
-5 0 -12 -4 -15 -10z"/>
<path d="M3975 211 c-3 -5 -1 -12 5 -16 12 -7 30 2 30 16 0 12 -27 12 -35 0z"/>
<path d="M2587 253 c-11 -11 -8 -51 5 -59 18 -11 39 25 27 47 -10 20 -21 24
-32 12z"/>
<path d="M2815 250 c-9 -14 2 -60 14 -60 19 0 35 31 25 48 -13 21 -30 26 -39
12z"/>
<path d="M3060 212 c0 -14 11 -21 26 -15 21 8 17 23 -6 23 -11 0 -20 -4 -20
-8z"/>
</g>
</svg>
